<?xml version="1.0" standalone="no"?>
<svg xmlns="http://www.w3.org/2000/svg" viewBox="0 0 211.02 29.001" width="211.02" height="29.001"><g fill="#00936f" color="#00936f" transform="translate(0, 0) scale(0.5370371)"><svg width="50.0" height="54.0" x="0.0" y="0.0" viewBox="0 0 50 54"><path fill="currentColor" fill-rule="evenodd" d="M47.431 51.939l-7.898-1.25.029-8.411.053-2.538 7.816 12.199zM38.12 36.031l-.112 5.749-20.116-6.569.25-.822c.02-.036.028-.068.038-.101l7.247-23.331L38.12 36.031zM20.882 20.274l-3.644 11.72-8-16.075 11.644 4.355zm5.389-11.085l11.4-6.724-5.306 18.764-6.094-12.04zm7.147 14.098l3-10.628 7.335-2.946L33.698 23.84l-.28-.553zM9.879 20.714l-7.244-.649 4.779-4.306 2.465 4.955zm39.815 31.857L39.672 36.932l.019-1.014a.719.719 0 0 0-.087-.418l-5.102-10.075L46.573 8.461c.162-.22.2-.503.1-.763a.8.8 0 0 0-1.014-.437l-8.699 3.49 2.751-9.749a.81.81 0 0 0-.075-.617.801.801 0 0 0-.488-.361.768.768 0 0 0-.583.083l-13.72 8.1a.758.758 0 0 0-.352.462l-3.142 10.107-13.364-5a.78.78 0 0 0-.694.023 1.516 1.516 0 0 0-.169.119L.273 20.1a.775.775 0 0 0-.271.546.77.77 0 0 0 .205.576.816.816 0 0 0 .542.26l9.961.888 5.873 11.795-.412 1.329a.834.834 0 0 0 .043.584.77.77 0 0 0 .46.402L38 43.444l-.029 7.939a.79.79 0 0 0 .661.777l10.225 1.614c.071.019.136.019.184.019.138 0 .28-.038.45-.137.331-.274.418-.739.203-1.085z"></path></svg></g><line x1="38.852" y1="1" x2="38.852" y2="28.001" stroke="#26349b" stroke-linecap="round"></line><path fill="#26349b" fill-rule="nonzero" d="M7.01 0.86Q10.27 0.86 12.16 2.77Q14.04 4.68 14.04 8.28L14.04 8.28L14.04 17.81L12.29 17.81L12.29 12.86L1.73 12.86L1.73 17.81L0 17.81L0 8.28Q0 4.68 1.88 2.77Q3.77 0.86 7.01 0.86L7.01 0.86ZM1.73 11.33L12.29 11.33L12.29 8.11Q12.29 5.30 10.90 3.88Q9.50 2.45 7.01 2.45L7.01 2.45Q4.51 2.45 3.12 3.88Q1.73 5.30 1.73 8.11L1.73 8.11L1.73 11.33ZM20.64 7.66Q21.24 6.38 22.43 5.74Q23.62 5.09 25.37 5.09L25.37 5.09L25.37 6.74L24.96 6.72Q22.97 6.72 21.84 7.94Q20.71 9.17 20.71 11.38L20.71 11.38L20.71 17.81L19.01 17.81L19.01 5.18L20.64 5.18L20.64 7.66ZM34.94 5.09Q36.72 5.09 38.16 5.89Q39.60 6.70 40.42 8.16Q41.23 9.62 41.23 11.50L41.23 11.50Q41.23 13.39 40.42 14.86Q39.60 16.32 38.17 17.12Q36.74 17.93 34.94 17.93L34.94 17.93Q33.41 17.93 32.17 17.29Q30.94 16.66 30.14 15.43L30.14 15.43L30.14 22.46L28.44 22.46L28.44 5.18L30.07 5.18L30.07 7.68Q30.84 6.43 32.10 5.76Q33.36 5.09 34.94 5.09L34.94 5.09ZM34.82 16.42Q36.14 16.42 37.22 15.80Q38.30 15.19 38.92 14.06Q39.53 12.94 39.53 11.50L39.53 11.50Q39.53 10.06 38.92 8.94Q38.30 7.82 37.22 7.20Q36.14 6.58 34.82 6.58L34.82 6.58Q33.48 6.58 32.41 7.20Q31.34 7.82 30.73 8.94Q30.12 10.06 30.12 11.50L30.12 11.50Q30.12 12.94 30.73 14.06Q31.34 15.19 32.41 15.80Q33.48 16.42 34.82 16.42L34.82 16.42ZM54.38 5.18L56.09 5.18L56.09 16.27Q56.09 19.49 54.62 21.04Q53.16 22.58 50.21 22.58L50.21 22.58Q48.55 22.58 47.08 22.07Q45.60 21.55 44.69 20.64L44.69 20.64L45.55 19.34Q46.37 20.16 47.57 20.62Q48.77 21.07 50.14 21.07L50.14 21.07Q52.32 21.07 53.35 19.96Q54.38 18.84 54.38 16.49L54.38 16.49L54.38 15.02Q53.71 16.13 52.55 16.73Q51.38 17.33 49.92 17.33L49.92 17.33Q47.45 17.33 46.02 15.95Q44.59 14.57 44.59 11.90L44.59 11.90L44.59 5.18L46.30 5.18L46.30 11.74Q46.30 13.73 47.28 14.76Q48.26 15.79 50.09 15.79L50.09 15.79Q52.08 15.79 53.23 14.58Q54.38 13.37 54.38 11.21L54.38 11.21L54.38 5.18ZM79.20 0.86Q82.08 0.86 83.69 2.52Q85.30 4.18 85.30 7.32L85.30 7.32L85.30 17.81L83.54 17.81L83.54 7.37Q83.54 4.92 82.31 3.68Q81.07 2.45 78.94 2.45L78.94 2.45Q76.68 2.45 75.41 3.76Q74.14 5.06 74.14 7.75L74.14 7.75L74.14 17.81L72.38 17.81L72.38 7.37Q72.38 4.92 71.18 3.68Q69.98 2.45 67.85 2.45L67.85 2.45Q65.57 2.45 64.28 3.76Q63 5.06 63 7.75L63 7.75L63 17.81L61.22 17.81L61.22 1.01L62.93 1.01L62.93 3.82Q63.62 2.38 64.99 1.62Q66.36 0.86 68.23 0.86L68.23 0.86Q70.20 0.86 71.60 1.69Q73.01 2.52 73.63 4.01L73.63 4.01Q74.35 2.47 75.80 1.67Q77.26 0.86 79.20 0.86L79.20 0.86ZM95.69 16.42Q96.86 16.42 97.86 16.00Q98.86 15.58 99.55 14.76L99.55 14.76L100.51 15.86Q99.67 16.87 98.42 17.40Q97.18 17.93 95.66 17.93L95.66 17.93Q93.72 17.93 92.21 17.10Q90.70 16.27 89.86 14.81Q89.02 13.34 89.02 11.50L89.02 11.50Q89.02 9.65 89.82 8.18Q90.62 6.72 92.04 5.90Q93.46 5.09 95.26 5.09L95.26 5.09Q96.94 5.09 98.29 5.86Q99.65 6.62 100.45 7.99Q101.26 9.36 101.30 11.11L101.30 11.11L90.94 13.13Q91.42 14.66 92.68 15.54Q93.94 16.42 95.69 16.42L95.69 16.42ZM95.26 6.55Q93.94 6.55 92.89 7.16Q91.85 7.78 91.26 8.87Q90.67 9.96 90.67 11.38L90.67 11.38Q90.67 11.74 90.70 11.90L90.70 11.90L99.60 10.18Q99.31 8.59 98.14 7.57Q96.96 6.55 95.26 6.55L95.26 6.55ZM114.60 0L116.30 0L116.30 17.81L114.67 17.81L114.67 15.31Q113.90 16.58 112.64 17.26Q111.38 17.93 109.80 17.93L109.80 17.93Q108.02 17.93 106.58 17.11Q105.14 16.30 104.33 14.83Q103.51 13.37 103.51 11.50L103.51 11.50Q103.51 9.62 104.33 8.16Q105.14 6.70 106.58 5.89Q108.02 5.09 109.80 5.09L109.80 5.09Q111.34 5.09 112.57 5.72Q113.81 6.36 114.60 7.58L114.60 7.58L114.60 0ZM109.94 16.42Q111.26 16.42 112.33 15.80Q113.40 15.19 114.01 14.06Q114.62 12.94 114.62 11.50L114.62 11.50Q114.62 10.06 114.01 8.93Q113.40 7.80 112.33 7.19Q111.26 6.58 109.94 6.58L109.94 6.58Q108.60 6.58 107.53 7.19Q106.46 7.80 105.85 8.93Q105.24 10.06 105.24 11.50L105.24 11.50Q105.24 12.94 105.85 14.06Q106.46 15.19 107.53 15.80Q108.60 16.42 109.94 16.42L109.94 16.42ZM121.06 17.81L121.06 5.18L122.76 5.18L122.76 17.81L121.06 17.81ZM121.92 2.42Q121.39 2.42 121.03 2.06Q120.67 1.70 120.67 1.20L120.67 1.20Q120.67 0.72 121.03 0.36Q121.39 0 121.92 0L121.92 0Q122.45 0 122.81 0.35Q123.17 0.70 123.17 1.18L123.17 1.18Q123.17 1.70 122.81 2.06Q122.45 2.42 121.92 2.42L121.92 2.42ZM132.74 17.93Q130.87 17.93 129.40 17.11Q127.92 16.30 127.08 14.82Q126.24 13.34 126.24 11.50L126.24 11.50Q126.24 9.65 127.08 8.18Q127.92 6.72 129.40 5.90Q130.87 5.09 132.74 5.09L132.74 5.09Q134.38 5.09 135.66 5.72Q136.94 6.36 137.69 7.58L137.69 7.58L136.42 8.45Q135.79 7.51 134.83 7.04Q133.87 6.58 132.74 6.58L132.74 6.58Q131.38 6.58 130.28 7.19Q129.19 7.80 128.58 8.93Q127.97 10.06 127.97 11.50L127.97 11.50Q127.97 12.96 128.58 14.08Q129.19 15.19 130.28 15.80Q131.38 16.42 132.74 16.42L132.74 16.42Q133.87 16.42 134.83 15.96Q135.79 15.50 136.42 14.57L136.42 14.57L137.69 15.43Q136.94 16.66 135.65 17.29Q134.35 17.93 132.74 17.93L132.74 17.93ZM150.62 5.18L152.33 5.18L152.33 17.81L150.70 17.81L150.70 15.31Q149.93 16.58 148.67 17.26Q147.41 17.93 145.82 17.93L145.82 17.93Q144.05 17.93 142.61 17.11Q141.17 16.30 140.35 14.83Q139.54 13.37 139.54 11.50L139.54 11.50Q139.54 9.62 140.35 8.16Q141.17 6.70 142.61 5.89Q144.05 5.09 145.82 5.09L145.82 5.09Q147.36 5.09 148.60 5.72Q149.83 6.36 150.62 7.58L150.62 7.58L150.62 5.18ZM145.97 16.42Q147.29 16.42 148.36 15.80Q149.42 15.19 150.04 14.06Q150.65 12.94 150.65 11.50L150.65 11.50Q150.65 10.06 150.04 8.93Q149.42 7.80 148.36 7.19Q147.29 6.58 145.97 6.58L145.97 6.58Q144.62 6.58 143.56 7.19Q142.49 7.80 141.88 8.93Q141.26 10.06 141.26 11.50L141.26 11.50Q141.26 12.94 141.88 14.06Q142.49 15.19 143.56 15.80Q144.62 16.42 145.97 16.42L145.97 16.42ZM160.63 17.93Q158.93 17.93 158.00 16.97Q157.08 16.01 157.08 14.30L157.08 14.30L157.08 0L158.78 0L158.78 14.16Q158.78 15.29 159.31 15.88Q159.84 16.46 160.90 16.46L160.90 16.46Q161.57 16.46 162.05 16.25L162.05 16.25L162.17 17.66Q161.42 17.93 160.63 17.93L160.63 17.93Z" transform="translate(48.852, 5.597)"></path></svg>